/* XPM */
static char * whatsthis_xpm[] = {
"20 20 90 1",
" 	c None",
".	c #000000",
"+	c #D33200",
"@	c #191919",
"#	c #D63300",
"$	c #EA7848",
"%	c #FCB287",
"&	c #FFBA90",
"*	c #424242",
"=	c #474747",
"-	c #D93400",
";	c #E76B36",
">	c #FFC792",
",	c #FCBE89",
"'	c #EC7C49",
")	c #FAB47F",
"!	c #EE8752",
"~	c #111111",
"{	c #9F9F9F",
"]	c #DC3500",
"^	c #FAC081",
"/	c #FFD393",
"(	c #E3521B",
"_	c #E14812",
":	c #FCC98A",
"<	c #4F4F4F",
"[	c #A7A7A7",
"}	c #3D3D3D",
"|	c #DF3600",
"1	c #FFDF95",
"2	c #F7B56F",
"3	c #212121",
"4	c #8C8C8C",
"5	c #9B9B9B",
"6	c #393939",
"7	c #E33700",
"8	c #E23700",
"9	c #E8591C",
"0	c #FDE18D",
"a	c #FDE08D",
"b	c #2A2A2A",
"c	c #505050",
"d	c #8F8F8F",
"e	c #343434",
"f	c #EA5C1C",
"g	c #FDEC8E",
"h	c #FFF898",
"i	c #F18B42",
"j	c #E53700",
"k	c #323232",
"l	c #373737",
"m	c #7D7D7D",
"n	c #828282",
"o	c #303030",
"p	c #EB5114",
"q	c #FDF295",
"r	c #FFFF9F",
"s	c #F49C4E",
"t	c #E83800",
"u	c #3A3A3A",
"v	c #595959",
"w	c #767676",
"x	c #2B2B2B",
"y	c #EB3900",
"z	c #F7B46B",
"A	c #FFFFAB",
"B	c #F4904A",
"C	c #434343",
"D	c #454545",
"E	c #515151",
"F	c #131313",
"G	c #EE3A00",
"H	c #FDF2AD",
"I	c #FEF2AC",
"J	c #4B4B4B",
"K	c #1B1B1B",
"L	c #F13B00",
"M	c #FBCE92",
"N	c #F9A96D",
"O	c #535353",
"P	c #1E1E1E",
"Q	c #F33C00",
"R	c #5C5C5C",
"S	c #F63C00",
"T	c #242424",
"U	c #F93D00",
"V	c #FFFFEA",
"W	c #FB3E00",
"X	c #FFFFF7",
"Y	c #FE3E00",
".                   ",
"..          ++++++  ",
".@.        #$%&&%$# ",
".*=.      -;>,'')>!-",
".~{*.     ]^/(]]_:/]",
".@<[}.    |12|  |21|",
".33456.   7778  90a7",
".bbcdde.       fghij",
".kklmnno.     pqrst ",
".uuuvwwwx.   yzABy  ",
".CCCDEEEEF.  GHIG   ",
".JJJK......  LMNL   ",
".OOP...      QQQQ   ",
".R3. ..      SSSS   ",
".T.  ...     UVVU   ",
"..    ..     WXXW   ",
".     ...    YYYY   ",
"      ...           ",
"       ..           ",
"       ..           "};
