/* XPM */
static char * bold_xpm[] = {
"16 16 6 1",
" 	c None",
".	c #000000",
"+	c #C9C9C9",
"@	c #AFAFAF",
"#	c #6D6D6D",
"$	c #7A7A7A",
"                ",
"                ",
"    ...         ",
"     ..         ",
"     ..         ",
"     ..+..@     ",
"     ... #.@    ",
"     ..   .$    ",
"     ..   .$    ",
"     ..   .$    ",
"     ... #.@    ",
"    ...+..@     ",
"                ",
"                ",
"                ",
"                "};
