/* XPM */
static char * custom_content_3_xpm[] = {
"20 20 50 1",
" 	c None",
".	c #AA8475",
"+	c #FFF3B3",
"@	c #FFF4B8",
"#	c #FFF5BE",
"$	c #FFF5C2",
"%	c #B38B63",
"&	c #631D00",
"*	c #A77B55",
"=	c #FFF6C7",
"-	c #A47853",
";	c #BB9871",
">	c #AA805B",
",	c #A1734F",
"'	c #FFF7CC",
")	c #B08965",
"!	c #BC9974",
"~	c #FFF8D1",
"{	c #FEF7D0",
"]	c #F9F0C9",
"^	c #905C3C",
"/	c #814728",
"(	c #FFF8D7",
"_	c #AD8566",
":	c #D1B797",
"<	c #FFF9DC",
"[	c #FBF3D6",
"}	c #F3E8CB",
"|	c #844B2E",
"1	c #E1CFB2",
"2	c #FFFAE0",
"3	c #F7EED4",
"4	c #A57B5F",
"5	c #FFFBE6",
"6	c #BB9B82",
"7	c #AD866D",
"8	c #FFFBEA",
"9	c #81482D",
"0	c #DDCBB7",
"a	c #D3BDA8",
"b	c #8A543A",
"c	c #C9AF9A",
"d	c #FFFCEF",
"e	c #F9F4E6",
"f	c #7B3F25",
"g	c #7C4026",
"h	c #B4917C",
"i	c #FFFDF5",
"j	c #FFFEF9",
"k	c #FFFFFF",
"                    ",
"  ................  ",
" .++++++++++++++++. ",
" .@@@@@@@@@@@@@@@@. ",
" .################. ",
" .$$$$$$%&&*$$$$$$. ",
" .=====-&;>&,=====. ",
" .'''''&)''!&'''''. ",
" .~~~~~{]~~^/~~~~~. ",
" .(((((((_&&:(((((. ",
" .<<<<<<<[}|&1<<<<. ",
" .2222222223&42222. ",
" .55556&5555&75555. ",
" .88888990a9bc8888. ",
" .dddddef&&ghddddd. ",
" .iiiiiiiiiiiiiiii. ",
" .jjjjjjjjjjjjjjjj. ",
" .kkkkkkkkkkkkkkkk. ",
"  ................  ",
"                    "};
