/* XPM */
static char * custom_content_1_xpm[] = {
"20 20 111 2",
"  	c None",
". 	c #9E8DBC",
"+ 	c #9EE9FF",
"@ 	c #9EEAFF",
"# 	c #9FEAFF",
"$ 	c #A0EAFF",
"% 	c #A1EAFF",
"& 	c #9FE7FC",
"* 	c #A1E9FE",
"= 	c #A0E8FD",
"- 	c #A2EBFF",
"; 	c #A3EBFF",
"> 	c #A4EBFF",
", 	c #A5EBFF",
"' 	c #A6EBFF",
") 	c #A6EAFE",
"! 	c #A7EBFE",
"~ 	c #A8ECFF",
"{ 	c #A9ECFF",
"] 	c #6847A5",
"^ 	c #AAECFF",
"/ 	c #ABECFF",
"( 	c #ACEDFF",
"_ 	c #ACECFE",
": 	c #ADEDFF",
"< 	c #AEEDFF",
"[ 	c #AFEDFF",
"} 	c #B0EDFF",
"| 	c #B0EEFF",
"1 	c #B1EEFF",
"2 	c #B2EEFF",
"3 	c #B3EEFF",
"4 	c #B4EEFF",
"5 	c #B5EFFF",
"6 	c #B6EFFF",
"7 	c #B7EFFF",
"8 	c #B8EFFF",
"9 	c #B9EFFF",
"0 	c #BAF0FF",
"a 	c #BBF0FF",
"b 	c #BCF0FF",
"c 	c #BDF0FF",
"d 	c #BEF0FF",
"e 	c #BEF1FF",
"f 	c #BFF1FF",
"g 	c #C0F1FF",
"h 	c #C1F1FF",
"i 	c #C2F1FF",
"j 	c #C3F2FF",
"k 	c #C3F1FE",
"l 	c #C4F2FF",
"m 	c #C5F2FF",
"n 	c #C6F2FF",
"o 	c #C7F2FF",
"p 	c #C7F3FF",
"q 	c #C8F3FF",
"r 	c #C9F3FF",
"s 	c #C9F2FE",
"t 	c #CAF3FF",
"u 	c #CBF3FF",
"v 	c #CCF3FF",
"w 	c #CCF4FF",
"x 	c #CDF4FF",
"y 	c #CEF4FF",
"z 	c #CFF4FF",
"A 	c #D0F4FF",
"B 	c #D0F5FF",
"C 	c #D1F5FF",
"D 	c #D2F5FF",
"E 	c #D3F5FF",
"F 	c #D4F5FF",
"G 	c #D4F4FE",
"H 	c #D5F5FF",
"I 	c #D5F6FF",
"J 	c #D6F6FF",
"K 	c #D7F6FF",
"L 	c #D8F6FF",
"M 	c #D9F6FF",
"N 	c #DAF7FF",
"O 	c #DBF7FF",
"P 	c #DAF6FE",
"Q 	c #DCF7FF",
"R 	c #DDF7FF",
"S 	c #DEF7FF",
"T 	c #DEF8FF",
"U 	c #DFF8FF",
"V 	c #E0F8FF",
"W 	c #E1F8FF",
"X 	c #E3F8FF",
"Y 	c #E3F9FF",
"Z 	c #E4F9FF",
"` 	c #E5F9FF",
" .	c #E6F9FF",
"..	c #E7F9FF",
"+.	c #E7FAFF",
"@.	c #E8FAFF",
"#.	c #E9FAFF",
"$.	c #EAFAFF",
"%.	c #EBFAFF",
"&.	c #ECFAFF",
"*.	c #ECFBFF",
"=.	c #EDFBFF",
"-.	c #EEFBFF",
";.	c #EFFBFF",
">.	c #F0FBFF",
",.	c #F1FCFF",
"'.	c #F2FCFF",
").	c #F3FCFF",
"!.	c #F4FCFF",
"~.	c #F5FCFF",
"{.	c #F5FDFF",
"                                        ",
"    . . . . . . . . . . . . . . . .     ",
"  . + + + + + + + + @ @ # # # $ $ $ .   ",
"  . % & * = - ; ; ; > > > , , , ' ' .   ",
"  . ) ! ! ~ ~ ~ { { ] ^ ^ ^ / / / ( .   ",
"  . _ : : : < < < ] ] [ } } | 1 1 1 .   ",
"  . 2 2 3 3 3 4 ] ] ] 5 5 6 6 6 7 7 .   ",
"  . 8 8 8 9 9 ] 0 ] ] a a a b b b c .   ",
"  . c d e e f f f ] ] g h h h i i i .   ",
"  . j j k l l m m ] ] n n o o p q q .   ",
"  . r r s t s t u ] ] v w w x x x y .   ",
"  . y z z z A A B ] ] C D D D E E E .   ",
"  . F G H I I J J ] ] K K L L L M M .   ",
"  . N N N O P O Q ] ] R R R S S T U .   ",
"  . U V V V W W ] ] ] ] X Y Y Z Z Z .   ",
"  . ` `  . . .....+.@.@.@.#.#.#.$.$..   ",
"  . %.%.%.&.*.*.=.=.=.-.-.-.;.;.;.>..   ",
"  . >.,.,.,.'.'.'.).).).!.!.!.~.~.{..   ",
"    . . . . . . . . . . . . . . . .     ",
"                                        "};
