/* XPM */
static char * custom_content_2_xpm[] = {
"20 20 37 1",
" 	c None",
".	c #80B274",
"+	c #C7FFB9",
"@	c #CAFFBE",
"#	c #CEFFC3",
"$	c #D2FFC7",
"%	c #8CAA84",
"&	c #0F4F00",
"*	c #D5FFCC",
"=	c #8EAA88",
"-	c #86A180",
";	c #95B38F",
">	c #D9FFD0",
",	c #8AA384",
"'	c #81987B",
")	c #DDFFD5",
"!	c #6E806A",
"~	c #E1FFDA",
"{	c #98AD93",
"]	c #A8BFA3",
"^	c #E4FFDE",
"/	c #E3FEDD",
"(	c #A0B39B",
"_	c #D2EBCC",
":	c #E8FFE3",
"<	c #E6FDE1",
"[	c #9DAD9A",
"}	c #C1D5BD",
"|	c #ECFFE7",
"1	c #B3C2AF",
"2	c #D2E3CD",
"3	c #F0FFEC",
"4	c #EDFCE9",
"5	c #F3FFF1",
"6	c #F7FFF5",
"7	c #FBFFFA",
"8	c #FFFFFF",
"                    ",
"  ................  ",
" .++++++++++++++++. ",
" .@@@@@@@@@@@@@@@@. ",
" .################. ",
" .$$$$$$%&&%$$$$$$. ",
" .*****=&-;&=*****. ",
" .>>>>>&,>>'&>>>>>. ",
" .)))))))))!&))))). ",
" .~~~~~~~~{&]~~~~~. ",
" .^^^^^^/(&_/^^^^^. ",
" .:::::<[&}:::::::. ",
" .|||||1&2||&|||||. ",
" .33334&&&&&&33333. ",
" .55555&&&&&&55555. ",
" .6666666666666666. ",
" .7777777777777777. ",
" .8888888888888888. ",
"  ................  ",
"                    "};
