/* XPM */
static char * enumerated_list_xpm[] = {
"14 16 4 1",
" 	c None",
".	c #C60000",
"+	c #000000",
"@	c #D6ABAB",
" .            ",
"..   +++++++++",
" .            ",
" .      ++++++",
"...           ",
"              ",
"..@           ",
"  .  +++++++++",
"@.            ",
"...     ++++++",
"              ",
"..@           ",
"  .           ",
" .   +++++++++",
"  .           ",
"..@     ++++++"};
