/* XPM */
static char * figure_xpm[] = {
"14 16 16 1",
" 	c None",
".	c #A9D1AF",
"+	c #5B9967",
"@	c #316B3B",
"#	c #40774A",
"$	c #83DB90",
"%	c #79FCA7",
"&	c #000000",
"*	c #7AA4FF",
"=	c #91B4FF",
"-	c #A8C3FF",
";	c #7F1E1E",
">	c #FF9B9B",
",	c #AFD6B5",
"'	c #A6C1FD",
")	c #BC6969",
"              ",
"     .+@@+.   ",
"    .#$%%$#.  ",
"    +$%%%%$+  ",
"    @%%%%%%@  ",
"&&&&@%%%%%%@  ",
"&*=-@%%%%%%@  ",
"&*=-+$%%%;%+  ",
"&**=-#$%;>;,  ",
"&**=='+@)>)   ",
"&***==-;>>>;  ",
"&****=-)>>>)  ",
"&***=-;>>>>>; ",
"&&&&&&)>>>>>) ",
"     ;>>>>>>>;",
"     ;;;;;;;;;"};
