/* XPM */
static char * formal_para_xpm[] = {
"14 16 4 1",
" 	c None",
".	c #0019AA",
"+	c #000000",
"@	c #5069E5",
"              ",
"              ",
"              ",
"              ",
" ..... ++++++ ",
" .@@@.        ",
" ..... ++++++ ",
"              ",
" ++++++++++++ ",
"              ",
" ++++++++++++ ",
"              ",
"              ",
"              ",
"              ",
"              "};
