/* XPM */
static char * italic_xpm[] = {
"16 16 5 1",
" 	c None",
".	c #000000",
"+	c #B5B5B5",
"@	c #595959",
"#	c #BABABA",
"                ",
"        ..      ",
"        ..      ",
"                ",
"      ...       ",
"      +.@       ",
"      @.        ",
"     +.@        ",
"     @.+        ",
"     .. #.      ",
"     @...+      ",
"     +@.+       ",
"                ",
"                ",
"                ",
"                "};
