/* XPM */
static char * itemized_list_xpm[] = {
"14 16 4 1",
" 	c None",
".	c #8CD195",
"+	c #000000",
"@	c #008912",
" ..  +++++++++",
".@@.          ",
".@@.    ++++++",
" ..           ",
"              ",
"              ",
" ..  +++++++++",
".@@.          ",
".@@.    ++++++",
" ..           ",
"              ",
"              ",
" ..  +++++++++",
".@@.          ",
".@@.    ++++++",
" ..           "};
