/* XPM */
static char * para_xpm[] = {
"14 16 2 1",
" 	c None",
".	c #000000",
"              ",
"              ",
"              ",
"              ",
"       ...... ",
"              ",
" ............ ",
"              ",
" ............ ",
"              ",
" ............ ",
"              ",
"              ",
"              ",
"              ",
"              "};
