/* XPM */
static char * section_xpm[] = {
"14 16 3 1",
" 	c None",
".	c #9B0000",
"+	c #727272",
"              ",
"  ..........  ",
"  ..........  ",
"              ",
"       +++++  ",
"              ",
"  ++++++++++  ",
"              ",
"  ++++++++++  ",
"              ",
"              ",
"       +++++  ",
"              ",
"  ++++++++++  ",
"              ",
"  ++++++++++  "};
