/* XPM */
static char * set_default_attribute_value_xpm[] = {
"16 16 6 1",
" 	c None",
".	c #000000",
"+	c #00D300",
"@	c #727272",
"#	c #008700",
"$	c #007500",
"                ",
"     ..         ",
"    .+.         ",
"   .++.         ",
"  .++......@    ",
" .+++++++++#@   ",
"  .++.....#+#@  ",
"   .++@   @#+.  ",
"    .+.    $+.  ",
"     ..    $+.  ",
"          @#+.  ",
"    ......#+#@  ",
"    .++++++#@   ",
"    .......@    ",
"                ",
"                "};
