/* XPM */
static char * sub_section_xpm[] = {
"14 16 5 1",
" 	c None",
".	c #B56363",
"+	c #AAAAAA",
"@	c #9B0000",
"#	c #727272",
"..........    ",
"..........    ",
"              ",
"     +++++    ",
"              ",
"++++++++++    ",
"              ",
"              ",
"   @@@@@@@@@@ ",
"   @@@@@@@@@@ ",
"              ",
"        ##### ",
"              ",
"   ########## ",
"              ",
"   ########## "};
