/* XPM */
static char * underline_xpm[] = {
"16 16 6 1",
" 	c None",
".	c #000000",
"+	c #878787",
"@	c #ADADAD",
"#	c #565656",
"$	c #6D6D6D",
"                ",
"                ",
"                ",
"                ",
"     ..   ..    ",
"     ..   ..    ",
"     ..   ..    ",
"     ..   ..    ",
"     ..   ..    ",
"     +.@ @..    ",
"     @#...#.    ",
"      @+$@#.    ",
"                ",
"                ",
"    .........   ",
"    .........   "};
