/* XPM */
static char * url_xpm[] = {
"16 16 58 1",
" 	c None",
".	c #FFFD55",
"+	c #486AC2",
"@	c #476AC2",
"#	c #476AC3",
"$	c #4569C1",
"%	c #FFFAA1",
"&	c #FFFA92",
"*	c #3E66BA",
"=	c #466AC1",
"-	c #4268BD",
";	c #3B65B7",
">	c #3663B2",
",	c #456AC1",
"'	c #3A64B5",
")	c #3361AE",
"!	c #2F5FAA",
"~	c #3D65B8",
"{	c #3763B1",
"]	c #3161AD",
"^	c #2B5EA7",
"/	c #275CA1",
"(	c #3562B0",
"_	c #2E5FA9",
":	c #2A5DA5",
"<	c #275DA3",
"[	c #255BA0",
"}	c #1F5899",
"|	c #2D5FA9",
"1	c #265CA2",
"2	c #225A9D",
"3	c #1D5899",
"4	c #1B5796",
"5	c #175592",
"6	c #FFFC67",
"7	c #235B9E",
"8	c #215A9C",
"9	c #FFFC8C",
"0	c #1A5795",
"a	c #13548E",
"b	c #0F518A",
"c	c #0D5188",
"d	c #0A5085",
"e	c #084E83",
"f	c #FFFD7D",
"g	c #FFFC68",
"h	c #FFFD7B",
"i	c #054E7F",
"j	c #064D7F",
"k	c #054D7F",
"l	c #0F528A",
"m	c #195695",
"n	c #245B9F",
"o	c #3964B3",
"p	c #4368BF",
"q	c #FFFC65",
"r	c #FFFD69",
"s	c #FFFB90",
"                ",
"                ",
" .  . ...  .    ",
".+..@.+#$%&*.   ",
".@..=.-..;.>.   ",
".,..*.'..).!.   ",
".~..{.]..^./.   ",
".(.._.:<[..}.   ",
".|..1.2.34.56.. ",
" .78.90..a.bcde.",
" .... .  . f..9 ",
"                ",
"......g......h..",
".ijiiklmn_op@@@.",
"...q.....rr....s",
"                "};
